<mxfile host="app.diagrams.net" modified="2024-01-26T14:42:24.975Z" agent="Mozilla/5.0 (Windows NT 10.0; Win64; x64) AppleWebKit/537.36 (KHTML, like Gecko) Chrome/120.0.0.0 Safari/537.36" version="23.0.2" etag="FKYKGiYJxCaGuSHpyW9Q" type="github">
  <diagram name="Страница — 1" id="vjcjuq9tmEjnRqq-C7tM">
    <mxGraphModel>
      <root>
        <mxCell id="0" />
        <mxCell id="1" parent="0" />
      </root>
    </mxGraphModel>
  </diagram>
</mxfile>
